<?xml version="1.0" encoding="utf-8"?>
<!-- Generator: Adobe Illustrator 23.0.0, SVG Export Plug-In . SVG Version: 6.00 Build 0)  -->
<svg version="1.1" id="Warstwa_1" xmlns="http://www.w3.org/2000/svg" xmlns:xlink="http://www.w3.org/1999/xlink" x="0px" y="0px"
	 viewBox="0 0 141.7 141.7" style="enable-background:new 0 0 141.7 141.7;" xml:space="preserve">
<style type="text/css">
	.st0{fill-rule:evenodd;clip-rule:evenodd;fill:#0B1135;stroke:#2B2A29;stroke-width:20;}
	.st1{fill-rule:evenodd;clip-rule:evenodd;fill:#FEFEFE;}
	.st2{fill:#FEFEFE;}
</style>
<polygon class="st0" points="0,0 141.7,0 141.7,141.7 0,141.7 "/>
<path class="st1" d="M57.8,20.4c16.4,0,30.2,11.1,34.3,26.2H78.7c-3.6-7.9-11.6-13.5-20.9-13.5s-17.3,5.5-20.9,13.5H23.5
	C27.6,31.5,41.4,20.4,57.8,20.4z M92.1,65.5c-0.9,3.4-2.4,6.6-4.2,9.5c1.6,1.5,3.3,3.2,4.9,4.7c1.5-0.5,3.4-0.9,4.8-0.1
	c1.5,0.9,2.6,2.5,3.9,3.7c-3.6,6.9-9.5,11.6-18.9,13c-0.5-1.2-1-2-1.3-3.2c-0.1-0.7,0-1.6,0.3-2.2c-1.6-1.6-3.4-3.3-5-4.8v0
	c-5.5,3.5-12,5.5-18.9,5.5c-16.4,0-30.1-11-34.3-26.1H37c3.6,7.9,11.6,13.4,20.8,13.4S75,73.4,78.6,65.6L92.1,65.5z"/>
<path class="st2" d="M22.3,52.5v9.8h-3.2h-0.2c-0.2,0-0.3,0-0.4-0.1c-0.1-0.1-0.1-0.2-0.1-0.3c0-0.2,0.1-0.3,0.3-0.4
	c0.2,0,0.3-0.1,0.3-0.1s0.1,0,0.1-0.1c0.1-0.1,0.1-0.2,0.1-0.4v-7.2c0-0.2,0-0.3-0.1-0.4c0,0-0.1-0.1-0.1-0.1c0,0-0.1,0-0.3-0.1
	s-0.3-0.2-0.3-0.4c0-0.1,0.1-0.2,0.1-0.3c0.1-0.1,0.2-0.1,0.4-0.1h0.2H22.3z M23.8,60.2v-5.7c0-0.3-0.1-0.6-0.1-0.8
	c-0.1-0.1-0.1-0.2-0.3-0.3c-0.1-0.1-0.2-0.1-0.4-0.2v-0.8c0.3,0,0.5,0,0.7,0c0.6,0.1,1.2,0.3,1.8,0.8c0.6,0.5,1,1,1.3,1.7
	c0.3,0.7,0.4,1.5,0.4,2.4c0,1-0.2,1.8-0.5,2.6c-0.4,0.7-0.9,1.4-1.6,1.8c-0.3,0.2-0.6,0.4-0.9,0.4c-0.3,0.1-0.7,0.1-1.1,0.1v-0.8
	c0.2-0.1,0.3-0.1,0.4-0.1c0.1-0.1,0.1-0.1,0.2-0.2c0.1-0.1,0.1-0.2,0.1-0.4C23.8,60.7,23.8,60.5,23.8,60.2z M31.9,52.5v9.8h-3.2
	h-0.2c-0.2,0-0.3,0-0.4-0.1c-0.1-0.1-0.1-0.2-0.1-0.3c0-0.2,0.1-0.3,0.3-0.4c0.2,0,0.3-0.1,0.3-0.1c0,0,0.1,0,0.1-0.1
	c0.1-0.1,0.1-0.2,0.1-0.4v-7.2c0-0.2,0-0.3-0.1-0.4c0,0-0.1-0.1-0.1-0.1c0,0-0.1,0-0.3-0.1c-0.2-0.1-0.3-0.2-0.3-0.4
	c0-0.1,0.1-0.2,0.1-0.3c0.1-0.1,0.2-0.1,0.4-0.1h0.2H31.9z M32.5,52.5h2.9V55c0,0.1,0,0.3-0.1,0.3c-0.1,0.1-0.1,0.1-0.3,0.1
	c-0.1,0-0.2,0-0.2-0.1c-0.1,0-0.1-0.1-0.1-0.3c-0.2-0.6-0.5-1-0.8-1.3c-0.4-0.3-0.8-0.5-1.4-0.5V52.5z M32.5,57.7v-0.9
	c0.3-0.1,0.5-0.3,0.6-0.4c0.1-0.2,0.2-0.4,0.3-0.6c0.1-0.2,0.1-0.3,0.2-0.4c0.1-0.1,0.1-0.1,0.3-0.1c0.1,0,0.3,0.1,0.3,0.2
	c0,0.1,0.1,0.2,0.1,0.4v2.7c0,0.2,0,0.4-0.1,0.5c-0.1,0.1-0.1,0.1-0.3,0.1c-0.1,0-0.2,0-0.3-0.1c-0.1-0.1-0.1-0.2-0.1-0.3
	c-0.1-0.3-0.2-0.6-0.3-0.8C32.9,57.9,32.7,57.8,32.5,57.7z M32.5,62.3v-0.8c0.3-0.1,0.6-0.1,0.8-0.2c0.2-0.1,0.4-0.2,0.6-0.4
	c0.2-0.2,0.4-0.4,0.5-0.6c0.1-0.2,0.2-0.4,0.3-0.7c0.1-0.2,0.1-0.3,0.2-0.3c0.1-0.1,0.1-0.1,0.2-0.1c0.1,0,0.2,0,0.3,0.1
	c0.1,0.1,0.1,0.2,0.1,0.4v2.5H32.5z M42,52.5v8.4c0,0.2,0,0.3,0.1,0.4c0.1,0.1,0.1,0.1,0.1,0.1c0,0,0.1,0.1,0.3,0.1
	c0.2,0.1,0.3,0.2,0.3,0.4c0,0.1-0.1,0.2-0.2,0.3c-0.1,0.1-0.3,0.1-0.5,0.1H42h-3.2h-0.3c-0.2,0-0.4,0-0.5-0.1
	c-0.1-0.1-0.1-0.2-0.1-0.3c0-0.2,0.1-0.3,0.3-0.4c0.2-0.1,0.3-0.1,0.3-0.1c0.1,0,0.1,0,0.1-0.1c0.1-0.1,0.1-0.2,0.1-0.4v-8.4H42z
	 M44.4,52.5v2.9c0,0.1,0,0.2-0.1,0.3c-0.1,0.1-0.2,0.1-0.3,0.1c-0.1,0-0.2-0.1-0.3-0.1c-0.1-0.1-0.1-0.2-0.1-0.3L43.5,55
	c-0.1-0.5-0.2-0.9-0.4-1.2c-0.1-0.2-0.3-0.4-0.5-0.5v-0.9H44.4z M36.3,52.5h1.9v0.9c-0.2,0.1-0.4,0.3-0.5,0.5
	c-0.2,0.3-0.4,0.7-0.4,1.2l-0.1,0.4c0,0.1-0.1,0.3-0.1,0.3c-0.1,0.1-0.2,0.1-0.3,0.1c-0.1,0-0.2-0.1-0.3-0.1
	c-0.1-0.1-0.1-0.2-0.1-0.3V52.5z M49.3,52.5v9.8h-3.2h-0.2c-0.2,0-0.3,0-0.4-0.1c-0.1-0.1-0.1-0.2-0.1-0.3c0-0.2,0.1-0.3,0.3-0.4
	c0.1,0,0.3-0.1,0.3-0.1c0,0,0.1,0,0.1-0.1c0.1-0.1,0.1-0.2,0.1-0.4v-7.2c0-0.2,0-0.3-0.1-0.4c0,0-0.1-0.1-0.1-0.1c0,0-0.1,0-0.3-0.1
	c-0.2-0.1-0.3-0.2-0.3-0.4c0-0.1,0.1-0.2,0.1-0.3c0.1-0.1,0.2-0.1,0.4-0.1h0.2H49.3z M49.9,52.5h2.9V55c0,0.1,0,0.3-0.1,0.3
	c-0.1,0.1-0.1,0.1-0.3,0.1c-0.1,0-0.2,0-0.2-0.1c-0.1,0-0.1-0.1-0.1-0.3c-0.2-0.6-0.5-1-0.8-1.3c-0.4-0.3-0.8-0.5-1.4-0.5V52.5z
	 M49.9,57.7v-0.9c0.3-0.1,0.5-0.3,0.6-0.4c0.1-0.2,0.2-0.4,0.3-0.6c0-0.2,0.1-0.3,0.1-0.4c0.1-0.1,0.1-0.1,0.3-0.1
	c0.2,0,0.3,0.1,0.3,0.2c0,0.1,0,0.2,0,0.4v2.7c0,0.2,0,0.4-0.1,0.5c-0.1,0.1-0.1,0.1-0.3,0.1c-0.1,0-0.2,0-0.3-0.1
	c-0.1-0.1-0.1-0.2-0.2-0.3c-0.1-0.3-0.2-0.6-0.3-0.8C50.3,57.9,50.1,57.8,49.9,57.7z M49.9,62.3v-0.8c0.3-0.1,0.6-0.1,0.8-0.2
	c0.2-0.1,0.4-0.2,0.6-0.4s0.4-0.4,0.5-0.6c0.1-0.2,0.3-0.4,0.4-0.7c0-0.2,0.1-0.3,0.1-0.3c0.1-0.1,0.1-0.1,0.3-0.1
	c0.1,0,0.2,0,0.3,0.1c0.1,0.1,0.1,0.2,0.1,0.4v2.5H49.9z M58.1,62.3h-3.2h-0.2c-0.2,0-0.3,0-0.4-0.1c-0.1-0.1-0.1-0.2-0.1-0.3
	c0-0.2,0.1-0.3,0.3-0.4c0.1,0,0.3-0.1,0.3-0.1c0,0,0,0,0.1-0.1c0.1-0.1,0.1-0.2,0.1-0.4v-7.2c0-0.2-0.1-0.3-0.1-0.4
	c0,0-0.1-0.1-0.1-0.1c0,0-0.1,0-0.3-0.1c-0.2-0.1-0.3-0.2-0.3-0.4c0-0.1,0-0.2,0.1-0.3c0.1-0.1,0.3-0.1,0.4-0.1h0.2h3.2h0.2
	c0.2,0,0.3,0,0.4,0.1c0.1,0.1,0.1,0.2,0.1,0.3c0,0.2-0.1,0.3-0.3,0.4c-0.2,0.1-0.3,0.1-0.3,0.1c0,0-0.1,0.1-0.1,0.1
	c-0.1,0.1-0.1,0.2-0.1,0.4V61c0,0.3,0.1,0.4,0.2,0.5l0.2,0.1c0.2,0.1,0.3,0.2,0.3,0.4c0,0.3-0.2,0.4-0.5,0.4H58.1z M60.9,55.3
	l2.2,5.7c0.1,0.1,0.1,0.3,0.2,0.3s0.1,0.1,0.2,0.2c0.1,0,0.2,0.1,0.2,0.1c0.1,0.1,0.1,0.2,0.1,0.3c0,0.3-0.2,0.4-0.5,0.4h-3.6
	c-0.2,0-0.3,0-0.4-0.1c-0.1-0.1-0.1-0.2-0.1-0.3c0-0.2,0.1-0.3,0.3-0.4c0.1-0.1,0.2-0.1,0.2-0.1c0,0,0.1-0.1,0.1-0.1
	c0,0,0-0.1-0.1-0.2l-0.9-2.7c-0.1-0.3-0.1-0.5-0.1-0.7s0.1-0.3,0.2-0.5l1.7-2.4c0.1-0.2,0.2-0.5,0.2-0.7c0-0.1,0-0.3-0.1-0.4
	c-0.1-0.1-0.1-0.2-0.3-0.3l-0.3-0.1c-0.2-0.1-0.2-0.2-0.2-0.3s0-0.3,0.1-0.3c0.1-0.1,0.2-0.1,0.3-0.1h2.6c0.2,0,0.3,0,0.4,0.1
	c0.1,0.1,0.1,0.2,0.1,0.3c0,0.2-0.1,0.3-0.3,0.4l-0.4,0.1c-0.2,0.1-0.4,0.2-0.6,0.4c-0.2,0.2-0.4,0.4-0.7,0.8L60.9,55.3z M70.2,52.5
	v8.4c0,0.2,0.1,0.3,0.1,0.4c0,0.1,0.1,0.1,0.1,0.1c0,0,0.1,0.1,0.3,0.1c0.2,0.1,0.3,0.2,0.3,0.4c0,0.1-0.1,0.2-0.2,0.3
	c-0.1,0.1-0.2,0.1-0.5,0.1h-0.3H67h-0.2c-0.2,0-0.4,0-0.5-0.1c-0.1-0.1-0.2-0.2-0.2-0.3c0-0.2,0.1-0.3,0.4-0.4
	c0.2-0.1,0.3-0.1,0.3-0.1c0,0,0.1,0,0.1-0.1c0.1-0.1,0.1-0.2,0.1-0.4v-8.4H70.2z M72.7,52.5v2.9c0,0.1,0,0.2-0.1,0.3
	s-0.2,0.1-0.3,0.1c-0.1,0-0.2-0.1-0.3-0.1c-0.1-0.1-0.1-0.2-0.2-0.3L71.7,55c-0.1-0.5-0.2-0.9-0.4-1.2c-0.1-0.2-0.3-0.4-0.5-0.5
	v-0.9H72.7z M64.5,52.5h1.9v0.9c-0.2,0.1-0.4,0.3-0.5,0.5c-0.2,0.3-0.3,0.7-0.4,1.2l-0.1,0.4c0,0.1-0.1,0.3-0.1,0.3
	c-0.1,0.1-0.2,0.1-0.3,0.1c-0.1,0-0.2-0.1-0.3-0.1c-0.1-0.1-0.1-0.2-0.1-0.3V52.5z M78.9,57.8v3.1c0,0.2,0,0.3,0.1,0.4
	c0.1,0.1,0.1,0.1,0.1,0.1c0,0,0.1,0.1,0.3,0.1c0.2,0.1,0.3,0.2,0.3,0.4c0,0.1-0.1,0.2-0.2,0.3c-0.1,0-0.2,0.1-0.4,0.1h-0.3h-3.2
	h-0.3c-0.2,0-0.4,0-0.5-0.1c-0.1-0.1-0.2-0.2-0.2-0.3c0-0.2,0.1-0.3,0.3-0.4c0.2-0.1,0.3-0.1,0.3-0.1c0,0,0.1,0,0.1-0.1
	c0.1-0.1,0.1-0.2,0.1-0.4v-2.4l-2-4.8c-0.1-0.2-0.2-0.3-0.3-0.4c-0.1-0.1-0.2-0.1-0.3-0.2C73,53,73,52.9,73,52.8
	c0-0.3,0.2-0.4,0.5-0.4h3.5c0.2,0,0.3,0,0.4,0.1c0.1,0.1,0.2,0.2,0.2,0.3s-0.1,0.3-0.2,0.3l-0.2,0.1c-0.1,0.1-0.1,0.1-0.1,0.2
	c0,0.1,0,0.3,0.1,0.4L78.9,57.8z M79.1,57.1l-0.4-0.9l0.8-1.7c0.1-0.2,0.1-0.3,0.1-0.6c0-0.3-0.1-0.5-0.5-0.6
	c-0.2-0.1-0.3-0.1-0.3-0.2c-0.1-0.1-0.1-0.1-0.1-0.2c0-0.1,0-0.2,0.1-0.3c0.1-0.1,0.1-0.1,0.2-0.1c0.1,0,0.2,0,0.4,0h1.8
	c0.3,0,0.5,0.1,0.5,0.4c0,0.1,0,0.2-0.1,0.2c-0.1,0.1-0.1,0.1-0.3,0.2c-0.2,0.1-0.4,0.2-0.5,0.3c-0.1,0.1-0.3,0.3-0.3,0.5l-0.2,0.4
	L79.1,57.1z M87.3,58.8l-0.9,3.5h-1.6l-2.3-8.4c-0.1-0.2-0.1-0.3-0.1-0.4c-0.1-0.1-0.1-0.1-0.3-0.2c-0.2-0.1-0.3-0.2-0.3-0.4
	c0-0.1,0.1-0.3,0.2-0.3c0.1-0.1,0.3-0.1,0.5-0.1H86c0.2,0,0.4,0,0.5,0.1c0.1,0.1,0.1,0.2,0.1,0.3c0,0.1-0.1,0.3-0.3,0.4
	c-0.1,0.1-0.2,0.2-0.3,0.2c0,0.1-0.1,0.1-0.1,0.2c0,0.1,0,0.1,0,0.2L87.3,58.8z M88,52.5h1.5l1.7,6.5l-0.8,3.3h-1.6L87.2,56L88,52.5
	z M91.5,57.9l-0.4-1.4l0.5-2.1c0.1-0.2,0.1-0.3,0.1-0.4c0-0.1-0.1-0.3-0.1-0.4c-0.1-0.1-0.2-0.2-0.4-0.3C91.1,53.1,91,53.1,91,53
	c0-0.1-0.1-0.1-0.1-0.2c0-0.1,0-0.2,0.1-0.3c0.1-0.1,0.2-0.1,0.4-0.1h1.7c0.2,0,0.3,0,0.4,0.1c0.1,0.1,0.1,0.1,0.1,0.3
	c0,0.1,0,0.1-0.1,0.2c0,0.1-0.1,0.1-0.2,0.1c-0.2,0.1-0.4,0.2-0.5,0.3c-0.2,0.2-0.4,0.5-0.5,1L91.5,57.9z M98.4,62.3h-3.2H95
	c-0.2,0-0.3,0-0.4-0.1c-0.1-0.1-0.1-0.2-0.1-0.3c0-0.2,0.1-0.3,0.3-0.4c0.2,0,0.3-0.1,0.3-0.1s0.1,0,0.1-0.1
	c0.1-0.1,0.1-0.2,0.1-0.4v-7.2c0-0.2,0-0.3-0.1-0.4c0,0-0.1-0.1-0.1-0.1c0,0-0.1,0-0.3-0.1c-0.2-0.1-0.3-0.2-0.3-0.4
	c0-0.1,0.1-0.2,0.1-0.3c0.1-0.1,0.2-0.1,0.4-0.1h0.2h3.2h0.2c0.2,0,0.3,0,0.4,0.1c0.1,0.1,0.1,0.2,0.1,0.3c0,0.2-0.1,0.3-0.3,0.4
	c-0.2,0.1-0.3,0.1-0.3,0.1c0,0-0.1,0.1-0.1,0.1c-0.1,0.1-0.1,0.2-0.1,0.4V61c0,0.2,0,0.3,0.1,0.4c0,0.1,0.1,0.1,0.1,0.1
	c0,0,0.1,0.1,0.3,0.1c0.2,0.1,0.3,0.2,0.3,0.4c0,0.1-0.1,0.2-0.1,0.3c-0.1,0.1-0.2,0.1-0.4,0.1H98.4z"/>
<path class="st2" d="M41.6,49.3c0,0.2-0.1,0.4-0.1,0.6c-0.1,0.2-0.2,0.3-0.3,0.4c-0.1,0.1-0.3,0.2-0.5,0.3c-0.2,0.1-0.4,0.1-0.7,0.1
	c-0.1,0-0.3,0-0.4,0c-0.1,0-0.2-0.1-0.3-0.1c-0.1,0-0.2-0.1-0.2-0.1c-0.1,0-0.1-0.1-0.1-0.1c0,0,0-0.1,0-0.1c0,0,0,0,0-0.1
	c0-0.1,0-0.1,0-0.1c0,0,0-0.1,0-0.2c0-0.1,0-0.2,0-0.2c0,0,0.1-0.1,0.1-0.1s0.1,0,0.1,0.1c0.1,0,0.1,0.1,0.2,0.1
	c0.1,0,0.2,0.1,0.3,0.1c0.1,0,0.3,0,0.4,0c0.1,0,0.2,0,0.3,0c0.1,0,0.2-0.1,0.2-0.1c0.1-0.1,0.1-0.1,0.1-0.2c0-0.1,0.1-0.2,0.1-0.3
	c0-0.1,0-0.2-0.1-0.3c0-0.1-0.1-0.1-0.2-0.2c-0.1-0.1-0.2-0.1-0.3-0.1c-0.1,0-0.3-0.1-0.4-0.1h-0.4c0,0-0.1,0-0.1,0c0,0,0,0-0.1-0.1
	c0,0,0-0.1,0-0.1c0,0,0-0.1,0-0.2c0-0.1,0-0.1,0-0.2c0,0,0-0.1,0-0.1c0,0,0-0.1,0.1-0.1s0,0,0.1,0h0.4c0.1,0,0.3,0,0.3,0
	c0.1,0,0.2-0.1,0.3-0.1c0.1-0.1,0.1-0.1,0.1-0.2c0-0.1,0.1-0.2,0.1-0.3c0-0.1,0-0.1,0-0.2c0-0.1-0.1-0.1-0.1-0.2
	c-0.1-0.1-0.1-0.1-0.2-0.1c-0.1,0-0.2-0.1-0.3-0.1c-0.1,0-0.2,0-0.3,0.1c-0.1,0-0.2,0.1-0.3,0.1C39.3,47,39.2,47,39.1,47
	c-0.1,0.1-0.1,0.1-0.1,0.1h0c0,0,0,0-0.1-0.1c0,0,0-0.1,0-0.1c0-0.1,0-0.1,0-0.2c0-0.1,0-0.1,0-0.1c0-0.1,0-0.1,0-0.1
	c0,0,0-0.1,0-0.1c0,0,0-0.1,0.1-0.1c0,0,0.1-0.1,0.1-0.1c0.1,0,0.2-0.1,0.3-0.1c0.1-0.1,0.2-0.1,0.4-0.1c0.1,0,0.3-0.1,0.4-0.1
	c0.2,0,0.4,0,0.5,0.1c0.2,0.1,0.3,0.1,0.4,0.2c0.1,0.1,0.2,0.2,0.3,0.3c0.1,0.1,0.1,0.3,0.1,0.5c0,0.1,0,0.3-0.1,0.4
	c0,0.1-0.1,0.2-0.1,0.3c-0.1,0.1-0.1,0.2-0.2,0.2c-0.1,0.1-0.2,0.1-0.3,0.2l0,0c0.2,0,0.3,0.1,0.4,0.1c0.1,0.1,0.2,0.1,0.3,0.2
	c0.1,0.1,0.1,0.2,0.2,0.3C41.6,49,41.6,49.2,41.6,49.3z M46.8,49.9c0,0.1,0,0.1,0,0.2c0,0,0,0.1,0,0.1s0,0.1,0,0.1s0,0-0.1,0.1
	c0,0-0.1,0.1-0.1,0.1c-0.1,0-0.1,0.1-0.3,0.1c-0.1,0.1-0.2,0.1-0.3,0.1c-0.1,0-0.3,0-0.4,0c-0.3,0-0.6-0.1-0.8-0.1
	c-0.2-0.1-0.4-0.3-0.6-0.4c-0.2-0.2-0.3-0.4-0.4-0.7c-0.1-0.3-0.1-0.6-0.1-1c0-0.4,0.1-0.7,0.1-1c0.1-0.3,0.3-0.5,0.4-0.8
	c0.2-0.2,0.4-0.3,0.6-0.5c0.3-0.1,0.5-0.1,0.8-0.1c0.1,0,0.3,0,0.3,0c0.1,0,0.2,0,0.3,0.1c0.1,0,0.2,0.1,0.3,0.1
	c0.1,0,0.1,0.1,0.1,0.1s0.1,0.1,0.1,0.1c0,0,0,0,0,0.1c0,0.1,0,0.1,0,0.1c0,0.1,0,0.1,0,0.2c0,0.1,0,0.1,0,0.2c0,0.1,0,0.1,0,0.1
	c0,0,0,0,0,0.1c0,0,0,0-0.1,0s-0.1,0-0.1-0.1c0-0.1-0.1-0.1-0.2-0.1c-0.1-0.1-0.2-0.1-0.3-0.1c-0.1,0-0.3-0.1-0.4-0.1
	c-0.2,0-0.3,0-0.5,0.1c-0.1,0.1-0.3,0.2-0.3,0.3s-0.2,0.3-0.2,0.5c-0.1,0.2-0.1,0.4-0.1,0.7c0,0.3,0,0.5,0.1,0.7
	c0.1,0.2,0.1,0.4,0.2,0.5c0.1,0.1,0.2,0.2,0.3,0.3c0.1,0.1,0.3,0.1,0.5,0.1c0.1,0,0.3,0,0.4-0.1c0.1,0,0.2-0.1,0.3-0.1
	c0.1-0.1,0.1-0.1,0.2-0.1c0.1-0.1,0.1-0.1,0.1-0.1h0c0,0,0,0,0.1,0.1c0,0,0,0.1,0,0.1S46.8,49.8,46.8,49.9z M48.3,50.5
	C48.3,50.5,48.3,50.5,48.3,50.5c-0.1,0.1-0.1,0.1-0.1,0.1c-0.1,0-0.1,0-0.1,0c-0.1,0-0.1,0-0.2,0c-0.1,0-0.2,0-0.2,0
	c-0.1,0-0.1,0-0.1,0c-0.1,0-0.1,0-0.1-0.1c0,0,0,0,0-0.1v-4.3c0,0,0-0.1,0-0.1c0,0,0,0,0.1,0c0,0,0.1,0,0.1,0c0.1,0,0.1,0,0.2,0
	c0.1,0,0.1,0,0.2,0c0.1,0,0.1,0,0.1,0c0,0,0,0,0.1,0c0,0,0,0.1,0,0.1V50.5z M52,46.5c0,0.1,0,0.1,0,0.2c0,0,0,0.1,0,0.1
	c0,0,0,0,0,0.1c0,0-0.1,0-0.1,0h-1v3.6c0,0,0,0.1,0,0.1c0,0-0.1,0-0.1,0.1c0,0-0.1,0-0.1,0c-0.1,0-0.1,0-0.2,0c-0.1,0-0.1,0-0.2,0
	c-0.1,0-0.1,0-0.1,0c0,0-0.1,0-0.1-0.1c0,0,0,0,0-0.1v-3.6h-1c0,0-0.1,0-0.1,0c0,0,0,0,0-0.1c0,0,0-0.1,0-0.1c0-0.1,0-0.1,0-0.2
	c0-0.1,0-0.1,0-0.2c0-0.1,0-0.1,0-0.1c0,0,0-0.1,0-0.1c0,0,0,0,0.1,0h3c0,0,0,0,0.1,0c0,0,0,0,0,0.1c0,0,0,0.1,0,0.1
	C52,46.3,52,46.4,52,46.5z M54.2,48.9v1.6c0,0,0,0.1,0,0.1c0,0,0,0-0.1,0.1c0,0-0.1,0-0.1,0c-0.1,0-0.1,0-0.2,0s-0.2,0-0.2,0
	c-0.1,0-0.1,0-0.1,0c0,0-0.1,0-0.1-0.1c0,0,0,0,0-0.1v-1.6l-1.2-2.5c-0.1-0.1-0.1-0.1-0.1-0.2c0-0.1,0-0.1,0-0.1c0,0,0.1,0,0.1,0
	c0.1,0,0.1,0,0.3,0c0.1,0,0.2,0,0.2,0c0.1,0,0.1,0,0.1,0c0,0,0.1,0,0.1,0c0,0,0,0.1,0,0.1l0.5,1.1c0.1,0.1,0.1,0.2,0.1,0.3
	c0,0.1,0.1,0.3,0.1,0.4l0,0c0-0.1,0.1-0.2,0.1-0.3c0.1-0.1,0.1-0.3,0.1-0.3l0.5-1.1c0-0.1,0-0.1,0.1-0.1c0,0,0-0.1,0.1-0.1
	c0,0,0.1,0,0.1,0c0.1,0,0.1,0,0.2,0c0.1,0,0.2,0,0.3,0c0.1,0,0.1,0,0.1,0c0,0,0,0.1,0,0.1c0,0.1-0.1,0.1-0.1,0.2L54.2,48.9z
	 M60.9,46.8c0,0.1,0,0.1,0,0.2c0,0.1,0,0.1,0,0.1c0,0,0,0.1,0,0.1c0,0,0,0-0.1,0s-0.1,0-0.1-0.1c-0.1-0.1-0.1-0.1-0.2-0.1
	c-0.1-0.1-0.2-0.1-0.4-0.1c-0.1,0-0.3-0.1-0.5-0.1c-0.2,0-0.4,0-0.6,0.1c-0.2,0.1-0.3,0.2-0.4,0.3c-0.1,0.1-0.2,0.3-0.3,0.5
	c-0.1,0.2-0.1,0.4-0.1,0.7s0,0.5,0.1,0.7c0.1,0.2,0.1,0.3,0.3,0.5c0.1,0.1,0.3,0.2,0.4,0.3c0.2,0.1,0.3,0.1,0.5,0.1
	c0.1,0,0.2,0,0.3,0c0.1,0,0.2-0.1,0.3-0.1v-1h-0.8c-0.1,0-0.1,0-0.1-0.1c0-0.1-0.1-0.1-0.1-0.3c0-0.1,0-0.1,0-0.2c0,0,0-0.1,0-0.1
	c0,0,0,0,0-0.1c0,0,0,0,0.1,0h1.4c0,0,0.1,0,0.1,0c0,0,0.1,0,0.1,0.1c0,0,0,0.1,0.1,0.1c0,0,0,0.1,0,0.1v1.8c0,0.1,0,0.1,0,0.2
	c0,0.1-0.1,0.1-0.1,0.1c-0.1,0-0.2,0.1-0.3,0.1c-0.1,0-0.2,0.1-0.3,0.1c-0.1,0-0.2,0-0.3,0.1c-0.1,0-0.2,0-0.3,0
	c-0.3,0-0.6-0.1-0.9-0.1c-0.3-0.1-0.5-0.3-0.7-0.5c-0.2-0.2-0.3-0.5-0.4-0.7c-0.1-0.3-0.1-0.6-0.1-1s0.1-0.7,0.2-1
	c0.1-0.3,0.2-0.5,0.4-0.7s0.4-0.4,0.7-0.5c0.3-0.1,0.6-0.2,0.9-0.2c0.2,0,0.3,0,0.5,0.1c0.2,0,0.3,0.1,0.4,0.1
	c0.1,0.1,0.2,0.1,0.3,0.1c0.1,0,0.1,0.1,0.1,0.1c0.1,0,0.1,0.1,0.1,0.1C60.9,46.6,60.9,46.7,60.9,46.8z M64.9,50.5
	C64.9,50.5,64.9,50.5,64.9,50.5c0,0.1-0.1,0.1-0.1,0.1s-0.1,0-0.1,0s-0.1,0-0.3,0c-0.1,0-0.2,0-0.2,0c-0.1,0-0.1,0-0.1,0
	c0,0-0.1,0-0.1-0.1c0,0,0,0,0-0.1l-0.4-1c-0.1-0.1-0.1-0.2-0.1-0.3s-0.1-0.1-0.1-0.2c-0.1-0.1-0.1-0.1-0.2-0.1
	c-0.1,0-0.1-0.1-0.2-0.1h-0.3v1.7c0,0,0,0.1,0,0.1c0,0-0.1,0-0.1,0.1c0,0-0.1,0-0.1,0c0,0-0.1,0-0.2,0c-0.1,0-0.1,0-0.2,0
	c-0.1,0-0.1,0-0.1,0c0,0-0.1,0-0.1-0.1c0,0,0,0,0-0.1v-4.1c0-0.1,0-0.2,0.1-0.2c0-0.1,0.1-0.1,0.2-0.1h1.1c0.1,0,0.2,0,0.3,0
	c0.1,0,0.1,0,0.2,0c0.2,0,0.3,0.1,0.5,0.1c0.1,0.1,0.3,0.1,0.4,0.2c0.1,0.1,0.2,0.2,0.2,0.4c0.1,0.1,0.1,0.3,0.1,0.5
	c0,0.1,0,0.3-0.1,0.4c0,0.1-0.1,0.3-0.2,0.3c-0.1,0.1-0.1,0.2-0.3,0.3c-0.1,0.1-0.2,0.1-0.3,0.2c0.1,0,0.1,0.1,0.2,0.1
	c0.1,0.1,0.1,0.1,0.2,0.2c0.1,0.1,0.1,0.1,0.1,0.2c0,0.1,0.1,0.2,0.1,0.3l0.4,0.9C64.9,50.3,64.9,50.3,64.9,50.5
	C64.9,50.4,64.9,50.5,64.9,50.5z M63.8,47.4c0-0.1-0.1-0.3-0.1-0.4c-0.1-0.1-0.2-0.2-0.3-0.2c0,0-0.1,0-0.1,0s-0.1,0-0.2,0h-0.4v1.3
	h0.5c0.1,0,0.2,0,0.3-0.1c0.1,0,0.2-0.1,0.2-0.1c0.1-0.1,0.1-0.1,0.1-0.2C63.8,47.6,63.8,47.5,63.8,47.4z M69.3,48.3
	c0,0.4-0.1,0.7-0.1,1c-0.1,0.3-0.2,0.6-0.4,0.8c-0.2,0.2-0.4,0.4-0.6,0.5c-0.3,0.1-0.6,0.2-0.9,0.2c-0.3,0-0.6,0-0.9-0.1
	c-0.2-0.1-0.4-0.2-0.6-0.4c-0.2-0.2-0.3-0.4-0.4-0.7c-0.1-0.3-0.1-0.6-0.1-1c0-0.4,0.1-0.7,0.1-1c0.1-0.3,0.2-0.5,0.4-0.7
	c0.2-0.2,0.4-0.4,0.6-0.5c0.3-0.1,0.6-0.2,0.9-0.2c0.3,0,0.6,0.1,0.9,0.1c0.3,0.1,0.5,0.2,0.6,0.4c0.2,0.2,0.3,0.4,0.4,0.7
	C69.2,47.6,69.3,47.9,69.3,48.3z M68.4,48.4c0-0.3,0-0.5-0.1-0.7c0-0.2-0.1-0.4-0.2-0.5s-0.2-0.2-0.3-0.3c-0.1-0.1-0.3-0.1-0.5-0.1
	c-0.2,0-0.4,0-0.5,0.1c-0.1,0.1-0.3,0.2-0.3,0.3s-0.2,0.3-0.2,0.5c0,0.2-0.1,0.4-0.1,0.6c0,0.3,0,0.5,0.1,0.7c0,0.2,0.1,0.3,0.2,0.5
	c0.1,0.1,0.2,0.3,0.3,0.3c0.1,0.1,0.3,0.1,0.5,0.1c0.2,0,0.4,0,0.5-0.1c0.1-0.1,0.3-0.2,0.3-0.3c0.1-0.1,0.2-0.3,0.2-0.5
	C68.3,48.8,68.4,48.6,68.4,48.4z M73.4,48.9c0,0.3-0.1,0.5-0.1,0.7c-0.1,0.2-0.2,0.4-0.3,0.6c-0.2,0.1-0.3,0.3-0.6,0.3
	c-0.2,0.1-0.5,0.1-0.7,0.1c-0.3,0-0.5,0-0.7-0.1c-0.2-0.1-0.4-0.2-0.5-0.3c-0.1-0.1-0.3-0.3-0.3-0.5C70,49.5,70,49.3,70,49v-2.7
	c0,0,0-0.1,0-0.1c0,0,0,0,0.1,0c0,0,0.1,0,0.1,0s0.1,0,0.2,0s0.1,0,0.2,0s0.1,0,0.1,0c0,0,0.1,0,0.1,0c0,0,0,0.1,0,0.1v2.7
	c0,0.2,0,0.3,0.1,0.5c0.1,0.1,0.1,0.3,0.2,0.3c0.1,0.1,0.2,0.1,0.3,0.2c0.1,0.1,0.2,0.1,0.4,0.1s0.3,0,0.4-0.1
	c0.1,0,0.2-0.1,0.3-0.2c0.1-0.1,0.1-0.2,0.2-0.3c0.1-0.1,0.1-0.3,0.1-0.4v-2.7c0,0,0-0.1,0-0.1c0,0,0.1,0,0.1,0c0,0,0.1,0,0.1,0
	s0.1,0,0.2,0c0.1,0,0.1,0,0.2,0s0.1,0,0.1,0c0.1,0,0.1,0,0.1,0c0,0,0,0.1,0,0.1V48.9z M77.2,47.5c0,0.3,0,0.5-0.1,0.7
	c-0.1,0.2-0.2,0.4-0.3,0.5c-0.1,0.1-0.3,0.2-0.5,0.3C76.1,49,75.9,49,75.6,49h-0.4v1.4c0,0,0,0.1,0,0.1c0,0-0.1,0-0.1,0.1
	c0,0-0.1,0-0.1,0c0,0-0.1,0-0.2,0s-0.1,0-0.2,0c-0.1,0-0.1,0-0.1,0c0,0-0.1,0-0.1-0.1c0,0,0,0,0-0.1v-4.1c0-0.1,0-0.2,0.1-0.3
	c0.1-0.1,0.1-0.1,0.2-0.1h1c0.1,0,0.2,0,0.3,0c0.1,0,0.2,0,0.3,0c0.1,0,0.3,0.1,0.4,0.2c0.1,0.1,0.2,0.1,0.3,0.3
	c0.1,0.1,0.2,0.3,0.2,0.4C77.2,47.1,77.2,47.3,77.2,47.5z M76.4,47.5c0-0.2,0-0.3-0.1-0.4c-0.1-0.1-0.1-0.2-0.2-0.2
	c-0.1-0.1-0.2-0.1-0.3-0.1c-0.1,0-0.2,0-0.3,0h-0.4v1.5h0.4c0.1,0,0.3,0,0.3-0.1c0.1,0,0.2-0.1,0.2-0.2c0.1-0.1,0.1-0.1,0.1-0.3
	C76.3,47.8,76.4,47.7,76.4,47.5z"/>
<path class="st1" d="M105.7,87.7c1.6,1.5,3.3,3,4.9,4.5c-3.7,7.3-9.3,12.1-17.7,14.1c-1.6-1.5-3.6-3.5-5.2-5.1
	C95.2,99,101.6,95.1,105.7,87.7z"/>
<path class="st1" d="M114.7,96.7c1.6,1.5,3.7,3.9,5.4,5.4c-3.8,7.2-9.2,12-17.6,13.9c-1.6-1.6-3.7-3.7-5.3-5.2
	C105.3,108.6,111.1,104.2,114.7,96.7z"/>
<path class="st1" d="M123.1,107.9c1.7,9-8.3,16.3-16,12.3C114,118.7,119.9,114.3,123.1,107.9z"/>
</svg>
