<?xml version="1.0" encoding="UTF-8"?>
<!DOCTYPE svg PUBLIC "-//W3C//DTD SVG 1.1//EN" "http://www.w3.org/Graphics/SVG/1.1/DTD/svg11.dtd">
<!-- Creator: CorelDRAW X7 -->
<svg xmlns="http://www.w3.org/2000/svg" xml:space="preserve" width="50mm" height="50mm" version="1.1" style="shape-rendering:geometricPrecision; text-rendering:geometricPrecision; image-rendering:optimizeQuality; fill-rule:evenodd; clip-rule:evenodd"
viewBox="0 0 5000 5000"
 xmlns:xlink="http://www.w3.org/1999/xlink">
 <defs>
  <style type="text/css">
   <![CDATA[
    .str0 {stroke:#2B2A29;stroke-width:20}
    .fil1 {fill:#FEFEFE}
    .fil0 {fill:#C0891C stroke-opacity:"1"}
    .fil2 {fill:#FEFEFE;fill-rule:nonzero}
   ]]>
  </style>
 </defs>
 <g id="Warstwa_x0020_1">
  <metadata id="CorelCorpID_0Corel-Layer"/>
  <g id="_653820192">
   <polygon class="fil0 str0" points="0,0 5000,0 5000,5000 0,5000 "/>
   <path class="fil1" d="M2039 719c578,0 1065,391 1211,923l-474 0c-127,-280 -409,-475 -737,-475 -328,0 -610,195 -737,475l-474 0c146,-532 633,-923 1211,-923zm1210 1593c-33,120 -83,232 -148,334 56,54 116,112 172,167 52,-18 121,-33 171,-2 54,33 92,87 137,130 -127,242 -334,409 -665,460 -17,-41 -37,-69 -45,-112 -5,-24 -1,-55 12,-79 -57,-56 -119,-116 -176,-171l0 -1c-193,122 -422,193 -668,193 -577,0 -1062,-389 -1210,-919l476 0c127,278 408,471 734,471 326,0 607,-193 735,-470l475 -1z"/>
   <path class="fil2" d="M788 1851l0 346 -113 0 -7 0c-6,0 -11,-1 -14,-3 -3,-2 -5,-6 -5,-10 0,-7 4,-11 10,-14 6,-1 9,-3 10,-3 1,0 2,-1 3,-3 2,-3 3,-7 3,-13l0 -254c0,-6 -1,-10 -3,-13 -1,-1 -2,-2 -3,-3 -1,0 -4,-1 -10,-3 -6,-2 -10,-7 -10,-14 0,-4 2,-7 5,-10 3,-2 8,-3 14,-3l7 0 113 0zm51 274l0 -201c0,-12 -2,-22 -5,-29 -3,-5 -5,-8 -9,-10 -3,-3 -8,-5 -15,-6l0 -28c9,0 17,0 23,1 21,2 42,11 62,27 20,16 35,36 45,60 10,25 15,53 15,84 0,34 -7,65 -19,92 -13,26 -31,48 -55,63 -11,7 -22,13 -32,15 -10,3 -23,4 -39,4l0 -27c7,-2 12,-4 15,-5 3,-2 5,-4 7,-7 3,-4 4,-8 5,-13 1,-4 2,-11 2,-20zm286 -274l0 346 -113 0 -7 0c-6,0 -11,-1 -14,-3 -3,-2 -5,-6 -5,-10 0,-7 3,-11 10,-14 6,-1 9,-3 10,-3 1,0 2,-1 3,-3 2,-3 3,-7 3,-13l0 -254c0,-6 -1,-10 -3,-13 -1,-1 -2,-2 -3,-3 -1,0 -4,-1 -10,-3 -7,-2 -10,-7 -10,-14 0,-4 2,-7 5,-10 3,-2 8,-3 14,-3l7 0 113 0zm22 0l102 0 0 90c0,5 -1,9 -3,11 -2,3 -5,4 -9,4 -4,0 -7,-1 -8,-3 -2,-1 -4,-4 -5,-9 -7,-20 -16,-35 -28,-45 -13,-10 -29,-16 -49,-18l0 -30zm-1 185l0 -30c10,-4 17,-10 22,-15 5,-6 8,-13 10,-22 2,-7 3,-11 6,-14 2,-2 5,-3 9,-3 5,0 9,2 11,6 1,2 2,7 2,15l0 97c0,8 -1,13 -3,16 -2,3 -5,5 -10,5 -3,0 -6,-1 -9,-4 -2,-2 -4,-6 -5,-12 -3,-11 -7,-20 -12,-27 -6,-6 -13,-10 -21,-12zm2 161l0 -27c11,-2 20,-4 27,-7 7,-3 14,-8 22,-14 7,-6 13,-13 17,-20 4,-6 8,-15 12,-26 2,-6 4,-9 6,-11 2,-2 5,-3 8,-3 5,0 8,1 10,4 2,3 3,8 3,15l0 89 -105 0zm333 -346l0 298c0,7 1,11 3,14 2,2 3,3 4,3 1,1 5,2 12,4 8,2 12,6 12,14 0,4 -2,8 -6,10 -4,2 -9,3 -17,3l-8 0 -113 0 -9 0c-7,0 -13,-1 -17,-3 -3,-2 -5,-6 -5,-10 0,-8 4,-12 12,-14 6,-2 10,-3 11,-4 2,0 3,-1 4,-3 3,-3 4,-7 4,-14l0 -298 113 0zm87 0l0 104c0,4 -1,8 -4,11 -3,3 -6,5 -11,5 -4,0 -7,-2 -10,-4 -3,-3 -5,-7 -5,-12l-3 -15c-3,-16 -7,-30 -15,-41 -4,-7 -10,-13 -18,-17l0 -31 66 0zm-287 0l66 0 0 31c-8,4 -14,10 -18,17 -8,11 -13,25 -15,41l-3 15c0,5 -2,9 -5,12 -3,2 -6,4 -11,4 -4,0 -8,-2 -10,-5 -3,-3 -4,-7 -4,-11l0 -104zm457 0l0 346 -113 0 -6 0c-7,0 -11,-1 -15,-3 -3,-2 -5,-6 -5,-10 0,-7 4,-11 11,-14 5,-1 9,-3 9,-3 1,0 2,-1 3,-3 2,-3 3,-7 3,-13l0 -254c0,-6 -1,-10 -3,-13 -1,-1 -2,-2 -3,-3 0,0 -4,-1 -9,-3 -7,-2 -11,-7 -11,-14 0,-4 2,-7 5,-10 4,-2 8,-3 15,-3l6 0 113 0zm23 0l102 0 0 90c0,5 -1,9 -3,11 -2,3 -5,4 -10,4 -4,0 -6,-1 -8,-3 -2,-1 -3,-4 -5,-9 -6,-20 -16,-35 -28,-45 -13,-10 -29,-16 -48,-18l0 -30zm-2 185l0 -30c10,-4 18,-10 22,-15 5,-6 8,-13 11,-22 1,-7 3,-11 5,-14 2,-2 5,-3 9,-3 6,0 9,2 12,6 1,2 1,7 1,15l0 97c0,8 -1,13 -2,16 -2,3 -5,5 -10,5 -4,0 -7,-1 -9,-4 -2,-2 -4,-6 -6,-12 -2,-11 -7,-20 -12,-27 -5,-6 -12,-10 -21,-12zm2 161l0 -27c11,-2 20,-4 27,-7 8,-3 15,-8 22,-14 7,-6 13,-13 17,-20 5,-6 9,-15 13,-26 1,-6 3,-9 5,-11 2,-2 5,-3 9,-3 5,0 8,1 10,4 2,3 3,8 3,15l0 89 -106 0zm288 0l-114 0 -6 0c-6,0 -11,-1 -15,-3 -3,-2 -4,-6 -4,-10 0,-7 3,-11 10,-14 5,-1 9,-3 10,-3 0,0 1,-1 2,-3 2,-3 4,-7 4,-13l0 -254c0,-6 -2,-10 -4,-13 -1,-1 -2,-2 -2,-3 -1,0 -5,-1 -10,-3 -7,-2 -10,-7 -10,-14 0,-4 1,-7 4,-10 4,-2 9,-3 15,-3l6 0 114 0 6 0c6,0 11,1 14,3 4,3 5,6 5,10 0,7 -3,12 -10,14 -6,2 -9,3 -10,3 -1,1 -2,2 -3,3 -2,3 -3,7 -3,13l0 254c0,10 3,15 8,17l7 2c7,2 10,7 10,14 0,9 -6,13 -18,13l-6 0zm100 -245l77 200c2,5 4,9 6,12 2,3 5,5 8,7 4,1 6,3 7,3 3,3 4,6 4,10 0,9 -6,13 -19,13l-128 0c-6,0 -11,-1 -14,-3 -3,-3 -5,-7 -5,-11 0,-6 3,-10 10,-13 4,-2 6,-4 8,-5 1,-1 2,-3 2,-5 0,-1 -1,-4 -2,-8l-32 -97c-4,-9 -5,-17 -5,-23 0,-6 2,-12 7,-19l61 -86c5,-8 8,-16 8,-25 0,-4 -1,-9 -4,-13 -2,-4 -5,-7 -10,-9l-9 -3c-6,-3 -8,-7 -8,-12 0,-5 1,-9 5,-11 2,-2 6,-3 12,-3l90 0c6,0 11,1 14,4 3,2 5,6 5,11 0,7 -4,12 -12,15l-13 5c-6,2 -13,7 -22,14 -6,6 -14,15 -24,27l-17 25zm326 -101l0 298c0,7 2,11 4,14 1,2 3,3 4,3 1,1 5,2 12,4 8,2 12,6 12,14 0,4 -2,8 -7,10 -3,2 -8,3 -16,3l-9 0 -113 0 -8 0c-8,0 -13,-1 -17,-3 -4,-2 -6,-6 -6,-10 0,-8 4,-12 13,-14 6,-2 10,-3 11,-4 1,0 2,-1 4,-3 2,-3 3,-7 3,-14l0 -298 113 0zm88 0l0 104c0,4 -1,8 -4,11 -3,3 -7,5 -11,5 -4,0 -8,-2 -10,-4 -3,-3 -5,-7 -6,-12l-2 -15c-3,-16 -8,-30 -15,-41 -5,-7 -11,-13 -18,-17l0 -31 66 0zm-288 0l67 0 0 31c-8,4 -14,10 -19,17 -7,11 -12,25 -14,41l-3 15c-1,5 -3,9 -5,12 -3,2 -7,4 -11,4 -4,0 -8,-2 -11,-5 -2,-3 -4,-7 -4,-11l0 -104zm507 188l0 110c0,7 1,11 3,14 2,2 3,3 4,3 1,1 5,2 12,4 8,2 12,6 12,14 0,4 -2,8 -7,11 -2,1 -8,2 -15,2l-9 0 -113 0 -9 0c-7,0 -13,-1 -16,-3 -4,-2 -6,-6 -6,-10 0,-8 4,-12 12,-14 7,-2 10,-3 12,-4 1,0 2,-1 3,-3 3,-3 4,-7 4,-14l0 -86 -72 -171c-3,-6 -7,-11 -11,-14 -5,-3 -8,-5 -9,-7 -2,-2 -2,-4 -2,-7 0,-9 6,-13 19,-13l125 0c6,0 11,1 13,2 4,3 7,6 7,11 0,5 -3,9 -8,12l-7 5c-3,2 -4,5 -4,8 0,5 1,9 3,13l59 137zm10 -25l-15 -33 27 -59c2,-6 3,-12 3,-21 0,-10 -5,-17 -16,-21 -6,-3 -10,-5 -11,-7 -2,-2 -3,-4 -3,-8 0,-5 1,-8 4,-10 3,-2 5,-3 7,-3 3,-1 7,-1 13,-1l63 0c12,0 18,5 18,14 0,3 -1,6 -2,8 -2,2 -5,4 -10,6 -8,3 -14,7 -18,11 -5,5 -9,12 -12,18l-6 13 -42 93zm289 61l-30 122 -55 0 -82 -298c-2,-7 -4,-11 -5,-14 -2,-2 -5,-4 -9,-6 -6,-2 -10,-7 -10,-13 0,-5 2,-9 7,-11 4,-3 10,-4 17,-4l119 0c8,0 13,1 16,3 3,2 5,6 5,10 0,5 -3,10 -9,13 -5,3 -8,6 -10,8 -1,2 -2,5 -2,8 0,2 0,4 1,6l47 176zm24 -224l53 0 60 231 -29 115 -55 0 -59 -223 30 -123zm123 190l-13 -51 18 -75c2,-6 3,-11 3,-14 0,-5 -2,-10 -4,-13 -3,-4 -8,-7 -14,-11 -4,-2 -7,-4 -9,-6 -1,-2 -2,-5 -2,-8 0,-4 1,-7 4,-9 3,-2 7,-3 13,-3l60 0c7,0 12,1 15,3 3,2 4,5 4,10 0,2 0,4 -2,6 -1,2 -4,4 -7,5 -8,4 -13,7 -17,11 -8,8 -13,19 -17,34l-32 121zm242 156l-113 0 -7 0c-6,0 -11,-1 -14,-3 -3,-2 -5,-6 -5,-10 0,-7 3,-11 10,-14 6,-1 9,-3 10,-3 1,0 2,-1 3,-3 2,-3 3,-7 3,-13l0 -254c0,-6 -1,-10 -3,-13 -1,-1 -2,-2 -3,-3 -1,0 -4,-1 -10,-3 -7,-2 -10,-7 -10,-14 0,-4 2,-7 5,-10 3,-2 8,-3 14,-3l7 0 113 0 7 0c6,0 10,1 14,3 3,3 5,6 5,10 0,7 -4,12 -10,14 -6,2 -9,3 -10,3 -1,1 -2,2 -3,3 -2,3 -3,7 -3,13l0 254c0,6 1,10 3,13 1,2 2,3 3,3 1,0 4,2 10,3 6,3 10,7 10,14 0,4 -2,8 -5,10 -4,2 -8,3 -14,3l-7 0z"/>
   <path class="fil2" d="M1469 1739c0,8 -2,15 -4,21 -3,6 -7,11 -12,15 -5,5 -11,8 -18,10 -8,2 -15,3 -24,3 -5,0 -9,0 -14,-1 -4,-1 -8,-2 -12,-3 -3,-1 -6,-2 -8,-4 -2,-1 -4,-2 -5,-2 0,-1 -1,-2 -1,-3 0,0 -1,-1 -1,-2 0,-2 0,-3 -1,-5 0,-1 0,-3 0,-6 0,-4 1,-6 1,-8 1,-1 2,-2 3,-2 1,0 2,0 4,2 2,1 4,2 7,3 3,1 6,2 10,4 4,1 9,1 14,1 4,0 8,0 11,-1 3,-1 6,-3 8,-5 2,-2 4,-4 5,-7 1,-3 2,-6 2,-9 0,-4 -1,-7 -2,-10 -1,-3 -3,-5 -6,-7 -3,-2 -6,-4 -10,-5 -4,-1 -9,-2 -14,-2l-13 0c-1,0 -2,0 -3,0 0,-1 -1,-1 -2,-2 0,-1 0,-2 -1,-4 0,-1 0,-4 0,-6 0,-2 0,-4 0,-6 1,-1 1,-3 1,-3 1,-1 1,-2 2,-2 1,0 1,-1 2,-1l13 0c5,0 9,0 12,-1 4,-1 6,-3 9,-5 2,-2 4,-5 5,-7 1,-3 2,-7 2,-10 0,-3 0,-5 -1,-8 -1,-2 -2,-4 -4,-6 -2,-2 -4,-3 -6,-4 -3,-1 -6,-2 -10,-2 -4,0 -7,1 -11,2 -3,1 -7,3 -9,4 -3,2 -5,3 -7,4 -2,2 -4,2 -5,2 0,0 -1,0 -1,0 -1,0 -1,-1 -2,-2 0,-1 0,-2 0,-3 0,-2 0,-4 0,-6 0,-2 0,-4 0,-5 0,-2 0,-3 0,-4 0,-1 1,-2 1,-2 0,-1 1,-2 2,-2 0,-1 2,-2 4,-4 3,-1 6,-3 9,-4 4,-2 8,-3 13,-4 5,-1 10,-2 15,-2 7,0 14,1 19,3 6,2 11,5 14,8 4,3 7,8 9,12 2,5 3,11 3,17 0,5 -1,10 -2,14 -1,4 -3,8 -5,11 -2,3 -5,6 -8,8 -4,3 -7,4 -12,6l0 0c6,1 10,2 14,4 4,2 8,5 11,8 3,4 5,7 6,11 2,5 3,9 3,14zm183 22c0,2 0,4 -1,6 0,1 0,2 0,3 0,1 -1,2 -1,3 0,1 -1,1 -2,2 -1,1 -2,3 -5,4 -2,1 -5,3 -9,4 -3,2 -7,3 -12,4 -4,0 -9,1 -14,1 -10,0 -20,-2 -28,-5 -8,-4 -15,-9 -21,-15 -6,-7 -10,-15 -13,-25 -3,-10 -5,-22 -5,-35 0,-14 2,-26 5,-36 4,-11 9,-19 15,-27 6,-7 13,-12 21,-16 9,-4 18,-5 28,-5 5,0 9,0 12,1 4,0 8,1 11,3 3,1 6,2 9,4 2,1 4,3 5,4 1,1 2,2 2,3 1,0 1,1 1,2 1,2 1,3 1,4 0,2 0,4 0,6 0,3 0,5 0,6 0,2 -1,4 -1,5 0,1 -1,1 -1,2 -1,0 -1,1 -2,1 -1,0 -3,-1 -5,-2 -1,-2 -4,-3 -6,-5 -3,-2 -6,-4 -10,-5 -4,-1 -9,-2 -14,-2 -6,0 -11,1 -16,4 -5,2 -9,6 -12,11 -3,5 -6,10 -7,17 -2,7 -3,15 -3,23 0,9 1,18 3,24 2,7 4,13 8,17 3,5 7,8 12,10 4,2 10,3 16,3 5,0 10,0 14,-2 3,-1 7,-2 10,-4 2,-2 5,-3 6,-4 2,-2 4,-2 5,-2 0,0 1,0 1,0 1,0 1,1 2,2 0,1 0,2 0,4 0,2 1,4 1,7zm52 20c0,1 0,2 -1,2 -1,1 -1,1 -2,2 -2,0 -3,0 -5,1 -2,0 -4,0 -7,0 -3,0 -6,0 -8,0 -2,-1 -3,-1 -4,-1 -2,-1 -2,-1 -3,-2 0,0 -1,-1 -1,-2l0 -150c0,-1 1,-2 1,-3 1,0 1,-1 3,-1 1,-1 2,-1 4,-1 2,0 5,-1 8,-1 3,0 5,1 7,1 2,0 3,0 5,1 1,0 1,1 2,1 1,1 1,2 1,3l0 150zm131 -142c0,3 0,5 0,7 0,1 0,3 -1,4 0,1 -1,1 -1,2 -1,0 -2,1 -2,1l-37 0 0 128c0,1 -1,2 -1,2 -1,1 -2,1 -3,2 -1,0 -2,0 -4,1 -2,0 -5,0 -8,0 -3,0 -5,0 -7,0 -2,-1 -4,-1 -5,-1 -1,-1 -2,-1 -2,-2 -1,0 -1,-1 -1,-2l0 -128 -37 0c-1,0 -2,-1 -2,-1 -1,-1 -1,-1 -1,-2 -1,-1 -1,-3 -1,-4 -1,-2 -1,-4 -1,-7 0,-2 0,-4 1,-6 0,-2 0,-3 1,-4 0,-1 0,-2 1,-2 0,-1 1,-1 2,-1l105 0c0,0 1,0 2,1 0,0 1,1 1,2 1,1 1,2 1,4 0,2 0,4 0,6zm78 86l0 56c0,1 0,2 -1,2 0,1 -1,1 -2,2 -1,0 -3,0 -5,1 -2,0 -4,0 -7,0 -3,0 -6,0 -7,0 -2,-1 -4,-1 -5,-1 -1,-1 -2,-1 -3,-2 0,0 0,-1 0,-2l0 -56 -41 -87c-2,-3 -2,-5 -3,-7 0,-2 0,-3 1,-4 1,-1 2,-1 5,-1 2,-1 5,-1 10,-1 3,0 6,0 8,1 2,0 4,0 5,1 1,0 2,1 3,1 0,1 1,2 1,3l17 39c2,4 3,8 5,12 1,4 3,9 5,13l0 0c1,-4 3,-8 4,-12 2,-5 3,-9 5,-12l16 -39c1,-2 1,-3 2,-3 0,-1 1,-2 2,-2 1,-1 3,-1 5,-1 2,-1 5,-1 8,-1 4,0 8,0 10,1 3,0 4,0 5,1 1,1 1,2 1,4 -1,2 -2,4 -3,7l-41 87zm235 -74c0,2 0,4 0,6 0,2 0,3 -1,4 0,1 0,2 -1,2 0,1 -1,1 -2,1 -1,0 -2,-1 -5,-2 -2,-2 -5,-3 -8,-5 -4,-2 -8,-3 -14,-5 -5,-1 -11,-2 -17,-2 -8,0 -14,1 -20,4 -6,3 -11,6 -15,11 -4,5 -7,11 -9,18 -3,7 -4,14 -4,23 0,9 1,17 4,24 2,7 5,12 9,17 4,5 9,8 15,11 6,2 12,3 19,3 3,0 6,0 10,-1 3,-1 6,-2 9,-4l0 -37 -28 0c-2,0 -3,-1 -3,-3 -1,-2 -2,-5 -2,-9 0,-2 1,-4 1,-6 0,-1 0,-3 1,-4 0,-1 0,-1 1,-2 1,0 1,0 2,0l50 0c1,0 2,0 3,0 1,1 2,1 3,2 1,1 1,2 2,4 0,1 0,2 0,4l0 64c0,2 0,4 -1,6 -1,2 -2,3 -5,4 -2,1 -6,3 -9,4 -4,1 -8,2 -12,3 -4,1 -8,1 -12,2 -4,0 -8,0 -12,0 -12,0 -22,-2 -32,-5 -9,-4 -17,-9 -24,-16 -6,-7 -11,-16 -15,-26 -3,-10 -5,-21 -5,-34 0,-13 2,-24 6,-35 3,-10 8,-19 15,-26 7,-7 15,-13 25,-17 9,-4 20,-6 32,-6 6,0 12,1 17,2 6,1 10,2 14,3 4,2 7,3 10,5 3,1 4,3 5,4 2,1 2,3 3,5 0,2 0,5 0,9zm142 130c0,1 0,2 -1,2 0,1 -1,2 -2,2 -1,0 -3,1 -5,1 -2,0 -5,0 -9,0 -3,0 -6,0 -8,0 -2,0 -3,-1 -4,-1 -1,-1 -2,-1 -3,-2 0,0 -1,-1 -1,-2l-13 -36c-2,-4 -3,-8 -5,-11 -2,-3 -3,-5 -5,-8 -2,-2 -4,-3 -7,-4 -2,-1 -5,-2 -8,-2l-10 0 0 61c0,1 0,2 0,2 -1,1 -2,1 -3,2 -1,0 -3,0 -5,1 -1,0 -4,0 -7,0 -3,0 -5,0 -7,0 -2,-1 -4,-1 -5,-1 -1,-1 -2,-1 -2,-2 -1,0 -1,-1 -1,-2l0 -145c0,-3 1,-6 3,-7 1,-2 4,-3 6,-3l39 0c4,0 7,0 9,0 3,1 5,1 7,1 6,1 12,2 16,5 5,2 9,5 13,8 3,4 6,8 7,13 2,5 3,10 3,17 0,5 -1,10 -2,14 -1,5 -3,9 -6,12 -2,4 -5,6 -9,9 -3,3 -7,5 -12,6 2,1 4,3 6,4 2,2 4,4 6,6 2,3 3,5 5,8 1,3 3,7 4,11l13 31c1,3 2,5 2,7 1,1 1,2 1,3zm-39 -108c0,-5 -2,-10 -4,-13 -2,-4 -6,-6 -11,-8 -1,0 -3,-1 -5,-1 -2,0 -5,0 -8,0l-14 0 0 45 16 0c4,0 8,-1 11,-2 3,-1 6,-2 8,-4 2,-2 4,-5 5,-8 1,-2 2,-5 2,-9zm193 31c0,13 -2,25 -5,35 -3,11 -8,20 -14,27 -6,7 -13,13 -22,16 -9,4 -20,6 -31,6 -12,0 -22,-1 -31,-5 -8,-3 -15,-8 -21,-15 -6,-6 -10,-15 -13,-25 -3,-10 -5,-22 -5,-36 0,-13 2,-25 5,-35 3,-10 8,-19 14,-26 6,-7 13,-13 22,-17 9,-4 20,-6 31,-6 12,0 22,2 30,5 9,3 16,8 22,15 6,7 10,15 13,25 3,10 5,22 5,36zm-32 2c0,-9 -1,-16 -2,-23 -1,-7 -3,-13 -6,-18 -3,-5 -7,-8 -12,-11 -5,-3 -11,-4 -19,-4 -7,0 -13,1 -18,4 -5,3 -9,7 -12,12 -3,5 -6,11 -7,18 -1,7 -2,14 -2,21 0,9 1,17 2,24 1,6 3,12 6,17 3,5 7,9 12,12 5,2 11,3 19,3 7,0 13,-1 18,-4 5,-3 9,-7 12,-12 3,-5 6,-11 7,-18 1,-7 2,-14 2,-21zm179 20c0,10 -2,19 -4,26 -3,8 -7,14 -12,20 -6,5 -12,9 -20,12 -7,3 -16,4 -26,4 -10,0 -18,-1 -25,-4 -8,-2 -14,-6 -19,-11 -5,-5 -9,-11 -12,-19 -3,-8 -4,-16 -4,-27l0 -96c0,-1 0,-2 1,-3 0,0 1,-1 2,-1 1,-1 3,-1 5,-1 2,0 4,-1 7,-1 3,0 5,1 7,1 2,0 4,0 5,1 1,0 2,1 2,1 1,1 1,2 1,3l0 94c0,6 1,11 2,16 2,5 4,9 7,12 2,3 6,5 9,6 4,2 8,3 13,3 5,0 9,-1 13,-3 4,-1 7,-3 9,-6 3,-3 5,-7 6,-12 2,-4 3,-9 3,-15l0 -95c0,-1 0,-2 0,-3 1,0 2,-1 3,-1 1,-1 2,-1 4,-1 2,0 5,-1 8,-1 3,0 5,1 7,1 2,0 3,0 4,1 2,0 2,1 3,1 0,1 1,2 1,3l0 95zm134 -51c0,9 -1,16 -4,23 -2,7 -6,13 -11,18 -5,4 -11,8 -19,11 -7,2 -15,3 -25,3l-13 0 0 51c0,1 0,2 0,2 -1,1 -2,1 -3,2 -1,0 -3,0 -5,1 -1,0 -4,0 -7,0 -3,0 -5,0 -7,0 -2,-1 -4,-1 -5,-1 -1,-1 -2,-1 -2,-2 -1,0 -1,-1 -1,-2l0 -143c0,-4 1,-7 3,-9 2,-2 4,-3 7,-3l35 0c4,0 7,0 11,1 3,0 7,1 11,1 4,1 9,3 14,6 4,2 8,5 11,9 3,4 6,9 8,14 1,5 2,11 2,18zm-31 2c0,-6 -1,-10 -3,-14 -2,-4 -4,-6 -7,-8 -3,-2 -6,-3 -9,-3 -3,-1 -6,-1 -9,-1l-13 0 0 54 14 0c5,0 9,0 12,-2 3,-1 6,-3 8,-6 2,-2 4,-5 5,-9 1,-3 2,-7 2,-11z"/>
   <path class="fil1" d="M3728 3095c58,54 116,107 173,160 -132,258 -328,426 -626,497 -56,-54 -128,-125 -183,-179 266,-80 492,-219 636,-478z"/>
   <path class="fil1" d="M4047 3411c58,53 132,137 190,190 -135,254 -323,425 -621,490 -55,-55 -131,-129 -186,-183 285,-77 489,-231 617,-497z"/>
   <path class="fil1" d="M4344 3808c59,319 -294,574 -565,433 244,-52 451,-210 565,-433z"/>
  </g>
 </g>
</svg>
