<?xml version="1.0" encoding="UTF-8"?>
<!DOCTYPE svg PUBLIC "-//W3C//DTD SVG 1.1//EN" "http://www.w3.org/Graphics/SVG/1.1/DTD/svg11.dtd">
<!-- Creator: CorelDRAW X7 -->
<svg xmlns="http://www.w3.org/2000/svg" xml:space="preserve" width="50mm" height="50mm" version="1.1" style="shape-rendering:geometricPrecision; text-rendering:geometricPrecision; image-rendering:optimizeQuality; fill-rule:evenodd; clip-rule:evenodd"
viewBox="0 0 5000 5000"
 xmlns:xlink="http://www.w3.org/1999/xlink">
 <defs>
  <style type="text/css">
   <![CDATA[
    .str0 {stroke:#2B2A29;stroke-width:20}
    .fil0 {fill:#2B2A29}
    .fil1 {fill:#FEFEFE;fill-rule:nonzero}
    .fil2 {fill:#2B2A29;fill-rule:nonzero}
   ]]>
  </style>
 </defs>
 <g id="Warstwa_x0020_1">
  <metadata id="CorelCorpID_0Corel-Layer"/>
  <g id="_653828800">
   <polygon class="fil0 str0" points="0,0 5000,0 5000,5000 0,5000 "/>
   <path class="fil1" d="M2905 3341l337 0 0 27c-88,21 -156,59 -203,116 -47,56 -71,120 -71,191 0,59 18,114 52,164 35,49 81,86 137,109 73,29 153,42 241,44 98,2 167,-7 236,-36 82,-35 186,-115 189,-276 2,-174 -34,-210 -177,-352l83 0c57,54 127,138 153,196 25,58 38,126 38,203 0,102 -21,193 -62,271 -42,80 -102,141 -179,183 -78,44 -161,65 -249,65 -92,0 -180,-24 -263,-71 -83,-48 -147,-112 -193,-193 -46,-81 -69,-167 -69,-258 0,-67 4,-138 33,-213 18,-43 29,-134 -33,-143l0 -27z"/>
   <path class="fil1" d="M3873 2819l25 0 0 483 -25 0 0 -31c0,-27 -5,-48 -15,-65 -7,-12 -18,-21 -35,-27 -11,-5 -41,-7 -91,-7l-639 0c-50,0 -82,2 -94,7 -12,5 -23,15 -33,30 -9,15 -14,36 -14,62l0 31 -25 0 0 -483 25 0 0 31c0,26 5,48 15,64 7,12 19,21 35,28 11,5 42,7 91,7l639 0c51,0 82,-2 94,-7 13,-6 24,-16 33,-31 9,-15 14,-36 14,-61l0 -31z"/>
   <path class="fil1" d="M2927 1906l262 0 0 25c-60,15 -104,32 -130,51 -27,19 -48,44 -63,77 -9,18 -13,50 -13,96l0 73 749 0c51,0 82,-2 94,-8 13,-5 24,-16 33,-32 9,-16 14,-37 14,-65l0 -32 25 0 0 509 -25 0 0 -33c0,-28 -5,-50 -15,-67 -7,-13 -18,-22 -35,-30 -11,-5 -41,-7 -91,-7l-749 0 0 70c0,66 14,113 41,143 39,41 94,67 165,78l0 28 -262 0 0 -876z"/>
   <path class="fil1" d="M2927 755l25 0c5,29 24,119 39,135 20,22 71,72 154,131l238 170 350 0c50,0 81,-3 93,-8 13,-4 24,-14 33,-28 9,-15 14,-34 14,-58l0 -50 25 0 0 504 -25 0 0 -47c0,-26 -5,-47 -15,-63 -7,-11 -18,-20 -35,-27 -11,-5 -41,-7 -90,-7l-296 0 -280 212c-73,56 -168,148 -182,165 -15,17 -22,40 -23,69l-25 0 0 -507 25 0 0 19c0,26 4,58 13,69 8,10 16,15 26,15 17,0 68,-20 131,-67l198 -149 -176 -124c-68,-47 -114,-71 -137,-71 -14,0 -24,11 -33,23 -12,15 -19,23 -22,63l-25 0 0 -369z"/>
   <path class="fil1" d="M4430 1162l0 12c-18,0 -31,4 -38,12 -8,8 -12,22 -12,42l0 108c-9,3 -27,5 -53,7 -25,2 -46,3 -60,3 -74,0 -132,-18 -174,-55 -42,-36 -63,-85 -63,-145 0,-42 9,-80 28,-114 18,-33 43,-60 76,-80 33,-20 67,-29 104,-29 22,0 46,3 72,11 16,5 29,8 38,8 11,0 19,-5 22,-14l14 0 0 119 -12 0c-5,-33 -20,-59 -45,-79 -25,-20 -55,-30 -89,-30 -42,0 -77,17 -105,51 -27,34 -41,78 -41,132 0,60 16,109 48,148 31,39 71,58 119,58 45,0 68,-14 68,-43l0 -43c0,-25 -4,-43 -10,-53 -7,-9 -18,-14 -35,-14l-15 0 0 -12 163 0z"/>
   <path class="fil1" d="M4164 1865l-33 0 0 110c0,24 3,41 10,50 7,10 19,14 36,14l0 12 -146 0 0 -12c18,0 31,-4 37,-14 6,-9 9,-26 9,-50l0 -253c0,-24 -3,-40 -9,-49 -6,-9 -18,-14 -37,-14l0 -12 166 0c41,0 74,10 98,30 25,20 37,45 37,76 0,50 -28,83 -83,99 12,8 24,19 35,33 12,13 27,36 46,67 21,35 38,58 50,69 12,11 24,17 36,18l0 12 -82 0c-17,-20 -38,-50 -62,-90 -25,-41 -46,-68 -60,-79 -15,-12 -31,-17 -48,-17zm9 -202l-42 0 0 185 49 0c30,0 53,-9 70,-26 17,-17 25,-39 25,-67 0,-28 -9,-50 -28,-67 -18,-17 -43,-25 -74,-25z"/>
   <path class="fil1" d="M3995 2561c0,-60 21,-110 62,-150 42,-41 93,-60 155,-60 60,0 111,20 152,60 41,41 62,91 62,150 0,59 -21,110 -62,151 -42,42 -93,62 -154,62 -60,0 -111,-20 -152,-62 -42,-41 -63,-92 -63,-151zm62 0c0,59 14,107 42,143 28,37 65,55 111,55 45,0 83,-19 111,-56 29,-37 43,-83 43,-139 0,-60 -14,-108 -42,-144 -28,-36 -64,-54 -109,-54 -47,0 -85,18 -113,53 -28,36 -43,83 -43,142z"/>
   <path class="fil1" d="M4318 3390l0 -243c0,-24 -3,-40 -10,-49 -6,-10 -17,-15 -33,-15l0 -12 142 0 0 12c-17,0 -29,4 -36,14 -6,9 -9,26 -9,50l0 252c0,23 3,40 9,49 7,10 19,15 36,15l0 12 -99 0 0 -57c-38,45 -83,67 -135,67 -43,0 -77,-13 -102,-39 -24,-25 -37,-59 -37,-100l0 -199c0,-24 -3,-41 -9,-50 -6,-10 -19,-14 -36,-14l0 -12 145 0 0 12c-18,0 -30,4 -37,14 -6,9 -9,25 -9,49l0 205c0,33 9,59 27,78 19,19 44,28 77,28 48,0 87,-22 116,-67z"/>
   <path class="fil1" d="M4062 3785l147 0c48,0 86,10 114,32 28,21 43,49 43,83 0,33 -13,59 -37,77 -25,18 -60,27 -106,27 -18,0 -38,-1 -62,-4l0 113c0,24 3,41 10,50 6,9 18,14 36,14l0 12 -145 0 0 -12c17,0 29,-5 36,-15 6,-9 9,-25 9,-48l0 -253c0,-24 -3,-41 -9,-50 -7,-10 -19,-14 -36,-14l0 -12zm149 15l-50 0 0 182c14,4 30,6 50,6 30,0 54,-7 72,-23 17,-16 26,-37 26,-64 0,-29 -9,-53 -26,-72 -17,-19 -41,-29 -72,-29z"/>
   <path class="fil1" d="M578 2934c388,0 733,0 1120,0 0,305 0,625 0,930 0,173 92,191 324,190 194,-1 320,-5 319,-202 -1,-251 -1,-503 -2,-754 0,-126 25,-318 -49,-397 -61,-64 -230,-94 -448,-94 -1,-68 -2,-136 -3,-203 376,0 497,-78 497,-202 0,-342 0,-684 0,-1026 0,-91 -31,-241 -331,-238 -299,3 -305,147 -305,238 0,303 0,605 0,908 -376,0 -753,0 -1130,0 0,-305 0,-448 0,-754 0,-242 57,-339 167,-454 150,-157 324,-148 600,-148 225,0 451,0 677,0 171,0 593,0 888,0 146,0 278,55 386,170 119,129 137,213 134,437 -2,206 -5,412 -7,618 -3,283 -108,411 -362,506 -49,27 -32,63 25,82 257,124 347,265 347,638 0,181 5,371 3,473 -7,303 -151,618 -601,619l-839 1 -814 -1c-366,0 -596,-174 -596,-572 0,-387 0,-378 0,-765z"/>
   <path class="fil2" d="M3349 3990c-40,75 -96,141 -172,190l-10 -5c-83,-48 -147,-112 -193,-193 -46,-81 -69,-167 -69,-258 0,-67 4,-138 33,-213 18,-43 29,-134 -33,-143l0 -27 337 0 0 27c-88,21 -156,59 -203,116 -47,56 -71,120 -71,191 0,59 18,114 52,164 35,49 81,86 137,109 59,24 123,37 192,42z"/>
   <path class="fil2" d="M3409 2949c11,64 16,137 16,223l-332 0c-50,0 -82,2 -94,7 -12,5 -23,15 -33,30 -9,15 -14,36 -14,62l0 30 -25 0 0 -482 25 0 0 31c0,26 5,48 15,64 7,12 19,21 35,28 11,5 42,7 91,7l316 0z"/>
   <path class="fil2" d="M3358 2228c-55,106 -154,174 -305,231l-6 4 -64 0 0 70c0,66 14,113 41,143 39,41 94,67 165,78l0 28 -262 0 0 -876 262 0 0 25c-60,15 -104,32 -130,51 -27,19 -48,44 -63,77 -9,18 -13,50 -13,96l0 73 375 0z"/>
   <path class="fil2" d="M3419 1191c3,41 4,88 3,144l-1 84 -264 200c-73,56 -168,148 -182,165 -15,17 -22,40 -23,69l-25 0 0 -507 25 0 0 19c0,26 4,58 13,69 8,10 16,15 26,15 17,0 68,-20 131,-67l198 -149 -176 -124c-68,-47 -114,-71 -137,-71 -14,0 -24,11 -33,23 -12,15 -19,23 -22,63l-25 0 0 -369 25 0c5,29 24,119 39,135 20,22 71,72 154,131l238 170 36 0z"/>
  </g>
 </g>
</svg>
