<?xml version="1.0" encoding="utf-8"?>
<!-- Generator: Adobe Illustrator 23.0.0, SVG Export Plug-In . SVG Version: 6.00 Build 0)  -->
<svg version="1.1" id="Warstwa_1" xmlns="http://www.w3.org/2000/svg" xmlns:xlink="http://www.w3.org/1999/xlink" x="0px" y="0px"
	 viewBox="0 0 141.7 141.7" style="enable-background:new 0 0 141.7 141.7;" xml:space="preserve">
<style type="text/css">
	.st0{fill-rule:evenodd;clip-rule:evenodd;fill:#0B1135;stroke:#2B2A29;stroke-width:20;}
	.st1{fill:#FEFEFE;}
	.st2{fill:#2B2A29;}
</style>
<polygon class="st0" points="0,0 141.7,0 141.7,141.7 0,141.7 "/>
<path class="st1" d="M82.3,94.7h9.6v0.8c-2.5,0.6-4.4,1.7-5.8,3.3c-1.3,1.6-2,3.4-2,5.4c0,1.7,0.5,3.2,1.5,4.6
	c1,1.4,2.3,2.4,3.9,3.1c2.1,0.8,4.3,1.2,6.8,1.2c2.8,0.1,4.7-0.2,6.7-1c2.3-1,5.3-3.3,5.4-7.8c0.1-4.9-1-6-5-10h2.4
	c1.6,1.5,3.6,3.9,4.3,5.6c0.7,1.6,1.1,3.6,1.1,5.8c0,2.9-0.6,5.5-1.8,7.7c-1.2,2.3-2.9,4-5.1,5.2c-2.2,1.2-4.6,1.8-7.1,1.8
	c-2.6,0-5.1-0.7-7.5-2c-2.4-1.4-4.2-3.2-5.5-5.5c-1.3-2.3-2-4.7-2-7.3c0-1.9,0.1-3.9,0.9-6c0.5-1.2,0.8-3.8-0.9-4.1V94.7z"/>
<path class="st1" d="M109.8,79.9h0.7v13.7h-0.7v-0.9c0-0.8-0.1-1.4-0.4-1.8c-0.2-0.3-0.5-0.6-1-0.8c-0.3-0.1-1.2-0.2-2.6-0.2H87.7
	c-1.4,0-2.3,0.1-2.7,0.2s-0.7,0.4-0.9,0.9c-0.3,0.4-0.4,1-0.4,1.8v0.9H83V79.9h0.7v0.9c0,0.7,0.1,1.4,0.4,1.8c0.2,0.3,0.5,0.6,1,0.8
	c0.3,0.1,1.2,0.2,2.6,0.2h18.1c1.4,0,2.3-0.1,2.7-0.2c0.4-0.2,0.7-0.5,0.9-0.9c0.3-0.4,0.4-1,0.4-1.7V79.9z"/>
<path class="st1" d="M83,54h7.4v0.7c-1.7,0.4-2.9,0.9-3.7,1.4c-0.8,0.5-1.4,1.2-1.8,2.2c-0.3,0.5-0.4,1.4-0.4,2.7v2.1h21.2
	c1.4,0,2.3-0.1,2.7-0.2c0.4-0.1,0.7-0.5,0.9-0.9c0.3-0.5,0.4-1,0.4-1.8v-0.9h0.7v14.4h-0.7v-0.9c0-0.8-0.1-1.4-0.4-1.9
	c-0.2-0.4-0.5-0.6-1-0.9c-0.3-0.1-1.2-0.2-2.6-0.2H84.6v2c0,1.9,0.4,3.2,1.2,4.1c1.1,1.2,2.7,1.9,4.7,2.2v0.8H83V54z"/>
<path class="st1" d="M83,21.4h0.7c0.1,0.8,0.7,3.4,1.1,3.8c0.6,0.6,2,2,4.4,3.7l6.7,4.8h9.9c1.4,0,2.3-0.1,2.6-0.2
	c0.4-0.1,0.7-0.4,0.9-0.8c0.3-0.4,0.4-1,0.4-1.6v-1.4h0.7V44h-0.7v-1.3c0-0.7-0.1-1.3-0.4-1.8c-0.2-0.3-0.5-0.6-1-0.8
	c-0.3-0.1-1.2-0.2-2.6-0.2h-8.4l-7.9,6c-2.1,1.6-4.8,4.2-5.2,4.7c-0.4,0.5-0.6,1.1-0.7,2H83V38.2h0.7v0.5c0,0.7,0.1,1.6,0.4,2
	c0.2,0.3,0.5,0.4,0.7,0.4c0.5,0,1.9-0.6,3.7-1.9l5.6-4.2l-5-3.5c-1.9-1.3-3.2-2-3.9-2c-0.4,0-0.7,0.3-0.9,0.7
	c-0.3,0.4-0.5,0.7-0.6,1.8H83V21.4z"/>
<path class="st1" d="M125.6,32.9v0.3c-0.5,0-0.9,0.1-1.1,0.3c-0.2,0.2-0.3,0.6-0.3,1.2v3.1c-0.3,0.1-0.8,0.1-1.5,0.2
	c-0.7,0.1-1.3,0.1-1.7,0.1c-2.1,0-3.7-0.5-4.9-1.6c-1.2-1-1.8-2.4-1.8-4.1c0-1.2,0.3-2.3,0.8-3.2c0.5-0.9,1.2-1.7,2.2-2.3
	s1.9-0.8,2.9-0.8c0.6,0,1.3,0.1,2,0.3c0.5,0.1,0.8,0.2,1.1,0.2c0.3,0,0.5-0.1,0.6-0.4h0.4v3.4h-0.3c-0.1-0.9-0.6-1.7-1.3-2.2
	c-0.7-0.6-1.6-0.9-2.5-0.9c-1.2,0-2.2,0.5-3,1.4c-0.8,1-1.2,2.2-1.2,3.7c0,1.7,0.5,3.1,1.4,4.2c0.9,1.1,2,1.6,3.4,1.6
	c1.3,0,1.9-0.4,1.9-1.2v-1.2c0-0.7-0.1-1.2-0.3-1.5c-0.2-0.3-0.5-0.4-1-0.4H121v-0.3H125.6z"/>
<path class="st1" d="M118,52.9h-0.9V56c0,0.7,0.1,1.2,0.3,1.4c0.2,0.3,0.5,0.4,1,0.4v0.3h-4.1v-0.3c0.5,0,0.9-0.1,1-0.4
	c0.2-0.3,0.3-0.7,0.3-1.4v-7.2c0-0.7-0.1-1.1-0.3-1.4s-0.5-0.4-1-0.4v-0.3h4.7c1.2,0,2.1,0.3,2.8,0.9c0.7,0.6,1,1.3,1,2.2
	c0,1.4-0.8,2.4-2.4,2.8c0.3,0.2,0.7,0.5,1,0.9c0.3,0.4,0.8,1,1.3,1.9c0.6,1,1.1,1.6,1.4,2s0.7,0.5,1,0.5v0.3h-2.3
	c-0.5-0.6-1.1-1.4-1.8-2.6c-0.7-1.2-1.3-1.9-1.7-2.2C119,53,118.5,52.9,118,52.9z M118.3,47.1h-1.2v5.2h1.4c0.9,0,1.5-0.3,2-0.7
	c0.5-0.5,0.7-1.1,0.7-1.9s-0.3-1.4-0.8-1.9C119.9,47.4,119.2,47.1,118.3,47.1z"/>
<path class="st1" d="M113.2,72.6c0-1.7,0.6-3.1,1.8-4.3c1.2-1.2,2.6-1.7,4.4-1.7c1.7,0,3.1,0.6,4.3,1.7c1.2,1.2,1.8,2.6,1.8,4.3
	s-0.6,3.1-1.8,4.3c-1.2,1.2-2.6,1.8-4.4,1.8c-1.7,0-3.1-0.6-4.3-1.8C113.8,75.7,113.2,74.3,113.2,72.6z M115,72.6
	c0,1.7,0.4,3,1.2,4.1c0.8,1,1.8,1.6,3.1,1.6c1.3,0,2.4-0.5,3.1-1.6c0.8-1,1.2-2.4,1.2-3.9c0-1.7-0.4-3.1-1.2-4.1
	c-0.8-1-1.8-1.5-3.1-1.5c-1.3,0-2.4,0.5-3.2,1.5C115.4,69.6,115,70.9,115,72.6z"/>
<path class="st1" d="M122.4,96.1v-6.9c0-0.7-0.1-1.1-0.3-1.4c-0.2-0.3-0.5-0.4-0.9-0.4v-0.3h4v0.3c-0.5,0-0.8,0.1-1,0.4
	c-0.2,0.3-0.3,0.7-0.3,1.4v7.1c0,0.7,0.1,1.1,0.3,1.4c0.2,0.3,0.5,0.4,1,0.4v0.3h-2.8v-1.6c-1.1,1.3-2.4,1.9-3.8,1.9
	c-1.2,0-2.2-0.4-2.9-1.1c-0.7-0.7-1-1.7-1-2.8v-5.6c0-0.7-0.1-1.2-0.3-1.4c-0.2-0.3-0.5-0.4-1-0.4v-0.3h4.1v0.3
	c-0.5,0-0.9,0.1-1,0.4c-0.2,0.3-0.3,0.7-0.3,1.4V95c0,0.9,0.3,1.7,0.8,2.2c0.5,0.5,1.2,0.8,2.2,0.8C120.5,98,121.6,97.4,122.4,96.1z
	"/>
<path class="st1" d="M115.1,107.3h4.2c1.4,0,2.4,0.3,3.2,0.9c0.8,0.6,1.2,1.4,1.2,2.4c0,0.9-0.4,1.7-1,2.2c-0.7,0.5-1.7,0.8-3,0.8
	c-0.5,0-1.1,0-1.8-0.1v3.2c0,0.7,0.1,1.2,0.3,1.4c0.2,0.3,0.5,0.4,1,0.4v0.3h-4.1v-0.3c0.5,0,0.8-0.1,1-0.4c0.2-0.3,0.3-0.7,0.3-1.4
	v-7.2c0-0.7-0.1-1.2-0.3-1.4c-0.2-0.3-0.5-0.4-1-0.4V107.3z M119.4,107.7h-1.4v5.2c0.4,0.1,0.9,0.2,1.4,0.2c0.9,0,1.5-0.2,2-0.7
	c0.5-0.5,0.7-1,0.7-1.8c0-0.8-0.3-1.5-0.7-2S120.2,107.7,119.4,107.7z"/>
<path class="st1" d="M16.4,83.2c11,0,20.8,0,31.7,0c0,8.6,0,17.7,0,26.4c0,4.9,2.6,5.4,9.2,5.4c5.5,0,9.1-0.1,9-5.7
	c0-7.1,0-14.3-0.1-21.4c0-3.6,0.7-9-1.4-11.3c-1.7-1.8-6.5-2.7-12.7-2.7c0-1.9-0.1-3.9-0.1-5.8c10.7,0,14.1-2.2,14.1-5.7
	c0-9.7,0-19.4,0-29.1c0-2.6-0.9-6.8-9.4-6.7c-8.5,0.1-8.6,4.2-8.6,6.7c0,8.6,0,17.1,0,25.7c-10.7,0-21.3,0-32,0c0-8.6,0-12.7,0-21.4
	c0-6.9,1.6-9.6,4.7-12.9c4.3-4.5,9.2-4.2,17-4.2c6.4,0,12.8,0,19.2,0c4.8,0,16.8,0,25.2,0c4.1,0,7.9,1.6,10.9,4.8
	c3.4,3.7,3.9,6,3.8,12.4c-0.1,5.8-0.1,11.7-0.2,17.5c-0.1,8-3.1,11.7-10.3,14.3c-1.4,0.8-0.9,1.8,0.7,2.3c7.3,3.5,9.8,7.5,9.8,18.1
	c0,5.1,0.1,10.5,0.1,13.4c-0.2,8.6-4.3,17.5-17,17.5l-23.8,0l-23.1,0c-10.4,0-16.9-4.9-16.9-16.2C16.4,93.9,16.4,94.1,16.4,83.2z"/>
<path class="st2" d="M94.9,113.1c-1.1,2.1-2.7,4-4.9,5.4l-0.3-0.1c-2.4-1.4-4.2-3.2-5.5-5.5c-1.3-2.3-2-4.7-2-7.3
	c0-1.9,0.1-3.9,0.9-6c0.5-1.2,0.8-3.8-0.9-4.1v-0.8h9.6v0.8c-2.5,0.6-4.4,1.7-5.8,3.3c-1.3,1.6-2,3.4-2,5.4c0,1.7,0.5,3.2,1.5,4.6
	c1,1.4,2.3,2.4,3.9,3.1C91.2,112.6,93,113,94.9,113.1z"/>
<path class="st2" d="M96.6,83.6c0.3,1.8,0.5,3.9,0.5,6.3h-9.4c-1.4,0-2.3,0.1-2.7,0.2s-0.7,0.4-0.9,0.9c-0.3,0.4-0.4,1-0.4,1.8v0.9
	H83V79.9h0.7v0.9c0,0.7,0.1,1.4,0.4,1.8c0.2,0.3,0.5,0.6,1,0.8c0.3,0.1,1.2,0.2,2.6,0.2H96.6z"/>
<path class="st2" d="M95.2,63.2c-1.6,3-4.4,4.9-8.6,6.5l-0.2,0.1h-1.8v2c0,1.9,0.4,3.2,1.2,4.1c1.1,1.2,2.7,1.9,4.7,2.2v0.8H83V54
	h7.4v0.7c-1.7,0.4-2.9,0.9-3.7,1.4c-0.8,0.5-1.4,1.2-1.8,2.2c-0.3,0.5-0.4,1.4-0.4,2.7v2.1H95.2z"/>
<path class="st2" d="M96.9,33.8c0.1,1.2,0.1,2.5,0.1,4.1l0,2.4l-7.5,5.7c-2.1,1.6-4.8,4.2-5.2,4.7c-0.4,0.5-0.6,1.1-0.7,2H83V38.2
	h0.7v0.5c0,0.7,0.1,1.6,0.4,2c0.2,0.3,0.5,0.4,0.7,0.4c0.5,0,1.9-0.6,3.7-1.9l5.6-4.2l-5-3.5c-1.9-1.3-3.2-2-3.9-2
	c-0.4,0-0.7,0.3-0.9,0.7c-0.3,0.4-0.5,0.7-0.6,1.8H83V21.4h0.7c0.1,0.8,0.7,3.4,1.1,3.8c0.6,0.6,2,2,4.4,3.7l6.7,4.8H96.9z"/>
</svg>
